<svg width="51" height="50" viewBox="0 0 51 50" fill="none" xmlns="http://www.w3.org/2000/svg">
<path d="M4.632 50C3.52089 50 2.54867 49.5833 1.71533 48.75C0.881999 47.9167 0.465332 46.9444 0.465332 45.8333V4.16667C0.465332 3.05556 0.881999 2.08333 1.71533 1.25C2.54867 0.416667 3.52089 0 4.632 0H30.9514C31.5533 0 32.051 0.19676 32.4445 0.590278C32.838 0.983797 33.0348 1.48148 33.0348 2.08333C33.0348 2.68519 32.838 3.18287 32.4445 3.57639C32.051 3.96991 31.5533 4.16667 30.9514 4.16667H4.632V45.8333H46.2987V19.5833C46.2987 18.9815 46.4954 18.4838 46.8889 18.0903C47.2825 17.6968 47.7801 17.5 48.382 17.5C48.9838 17.5 49.4815 17.6968 49.8751 18.0903C50.2686 18.4838 50.4653 18.9815 50.4653 19.5833V45.8333C50.4653 46.9444 50.0487 47.9167 49.2153 48.75C48.382 49.5833 47.4098 50 46.2987 50H4.632ZM42.8264 15.4167C42.2246 15.4167 41.7269 15.2199 41.3334 14.8264C40.9399 14.4329 40.7431 13.9352 40.7431 13.3333V9.79167H37.2014C36.5996 9.79167 36.1019 9.59491 35.7084 9.20139C35.3149 8.80787 35.1181 8.31019 35.1181 7.70833C35.1181 7.10648 35.3149 6.6088 35.7084 6.21528C36.1019 5.82176 36.5996 5.625 37.2014 5.625H40.7431V2.08333C40.7431 1.48148 40.9399 0.983797 41.3334 0.590278C41.7269 0.19676 42.2246 0 42.8264 0C43.4283 0 43.926 0.19676 44.3195 0.590278C44.713 0.983797 44.9098 1.48148 44.9098 2.08333V5.625H48.4514C49.0533 5.625 49.551 5.82176 49.9445 6.21528C50.338 6.6088 50.5348 7.10648 50.5348 7.70833C50.5348 8.31019 50.338 8.80787 49.9445 9.20139C49.551 9.59491 49.0533 9.79167 48.4514 9.79167H44.9098V13.3333C44.9098 13.9352 44.713 14.4329 44.3195 14.8264C43.926 15.2199 43.4283 15.4167 42.8264 15.4167ZM10.9514 38.75H40.0487C40.5116 38.75 40.8357 38.5648 41.0209 38.1944C41.2061 37.8241 41.1598 37.4537 40.882 37.0833L32.9653 26.5278C32.7338 26.25 32.4561 26.1111 32.132 26.1111C31.8079 26.1111 31.5301 26.25 31.2987 26.5278L23.3126 37.0139L17.6181 29.5139C17.3866 29.2361 17.1089 29.0972 16.7848 29.0972C16.4607 29.0972 16.1829 29.2361 15.9514 29.5139L10.1181 37.0833C9.88663 37.4537 9.87505 37.8241 10.0834 38.1944C10.2917 38.5648 10.5811 38.75 10.9514 38.75Z" fill="#D9D9D9"/>
</svg>
