<svg width="24" height="25" viewBox="0 0 24 25" fill="none" xmlns="http://www.w3.org/2000/svg">
<path fill-rule="evenodd" clip-rule="evenodd" d="M11 5.5H13C13.55 5.5 14 5.95 14 6.5C14 7.05 13.55 7.5 13 7.5H3C2.45 7.5 2 7.05 2 6.5C2 5.95 2.45 5.5 3 5.5H5L5.71 4.79C5.89 4.61 6.15 4.5 6.41 4.5H9.59C9.85 4.5 10.11 4.61 10.29 4.79L11 5.5ZM3 18.5C3 19.6 3.9 20.5 5 20.5H11C12.1 20.5 13 19.6 13 18.5V8.5H3V18.5ZM16 8.5H21C21.55 8.5 22 8.95 22 9.5C22 10.05 21.55 10.5 21 10.5H16C15.45 10.5 15 10.05 15 9.5C15 8.95 15.45 8.5 16 8.5ZM16 16.5H18C18.55 16.5 19 16.95 19 17.5C19 18.05 18.55 18.5 18 18.5H16C15.45 18.5 15 18.05 15 17.5C15 16.95 15.45 16.5 16 16.5ZM20 12.5H16C15.45 12.5 15 12.95 15 13.5C15 14.05 15.45 14.5 16 14.5H20C20.55 14.5 21 14.05 21 13.5C21 12.95 20.55 12.5 20 12.5Z" fill="#EA4335"/>
</svg>
